
<svg xmlns="http://www.w3.org/2000/svg" viewBox="0 0 400 400" width="400" height="400">
  <!-- Main Chip Outline -->
  <rect x="120" y="120" width="160" height="160" stroke="#00f0ff" stroke-width="2" fill="none" opacity="0.15"/>
  
  <!-- Inner Chip Components -->
  <rect x="140" y="140" width="120" height="120" stroke="#00f0ff" stroke-width="1" fill="none" opacity="0.1"/>
  <rect x="160" y="160" width="80" height="80" stroke="#9c57ff" stroke-width="1" fill="none" opacity="0.1"/>
  
  <!-- Circuit Paths -->
  <path d="M120,150 H80 V50 H300 V100" stroke="#00f0ff" stroke-width="1" fill="none" opacity="0.1"/>
  <path d="M120,200 H60 V240 H100" stroke="#00f0ff" stroke-width="1" fill="none" opacity="0.1"/>
  <path d="M280,150 H350 V80" stroke="#9c57ff" stroke-width="1" fill="none" opacity="0.1"/>
  <path d="M200,120 V80 H240 V40" stroke="#00f0ff" stroke-width="1" fill="none" opacity="0.1"/>
  <path d="M180,280 V320 H240 V350" stroke="#9c57ff" stroke-width="1" fill="none" opacity="0.1"/>
  <path d="M280,220 H340 V300 H240" stroke="#00f0ff" stroke-width="1" fill="none" opacity="0.1"/>
  
  <!-- Connection Points -->
  <circle cx="120" cy="150" r="3" fill="#00f0ff" opacity="0.2"/>
  <circle cx="120" cy="200" r="3" fill="#00f0ff" opacity="0.2"/>
  <circle cx="280" cy="150" r="3" fill="#9c57ff" opacity="0.2"/>
  <circle cx="200" cy="120" r="3" fill="#00f0ff" opacity="0.2"/>
  <circle cx="180" cy="280" r="3" fill="#9c57ff" opacity="0.2"/>
  <circle cx="280" cy="220" r="3" fill="#00f0ff" opacity="0.2"/>
  
  <!-- Small Circuit Elements -->
  <rect x="40" y="160" width="10" height="10" stroke="#00f0ff" stroke-width="1" fill="none" opacity="0.1"/>
  <rect x="320" y="40" width="10" height="10" stroke="#9c57ff" stroke-width="1" fill="none" opacity="0.1"/>
  <rect x="70" y="300" width="10" height="10" stroke="#00f0ff" stroke-width="1" fill="none" opacity="0.1"/>
  <rect x="350" y="280" width="10" height="10" stroke="#9c57ff" stroke-width="1" fill="none" opacity="0.1"/>
  
  <!-- Micro Circuits -->
  <path d="M30,30 H50 V50 H30 Z" stroke="#00f0ff" stroke-width="0.5" fill="none" opacity="0.1"/>
  <path d="M350,350 H370 V370 H350 Z" stroke="#9c57ff" stroke-width="0.5" fill="none" opacity="0.1"/>
  <path d="M30,350 H50 V370 H30 Z" stroke="#00f0ff" stroke-width="0.5" fill="none" opacity="0.1"/>
  <path d="M350,30 H370 V50 H350 Z" stroke="#9c57ff" stroke-width="0.5" fill="none" opacity="0.1"/>
  
  <!-- Connection Lines -->
  <line x1="0" y1="100" x2="30" y2="100" stroke="#00f0ff" stroke-width="0.5" opacity="0.1"/>
  <line x1="0" y1="200" x2="30" y2="200" stroke="#9c57ff" stroke-width="0.5" opacity="0.1"/>
  <line x1="0" y1="300" x2="30" y2="300" stroke="#00f0ff" stroke-width="0.5" opacity="0.1"/>
  <line x1="100" y1="0" x2="100" y2="30" stroke="#9c57ff" stroke-width="0.5" opacity="0.1"/>
  <line x1="200" y1="0" x2="200" y2="30" stroke="#00f0ff" stroke-width="0.5" opacity="0.1"/>
  <line x1="300" y1="0" x2="300" y2="30" stroke="#9c57ff" stroke-width="0.5" opacity="0.1"/>
  <line x1="400" y1="100" x2="370" y2="100" stroke="#00f0ff" stroke-width="0.5" opacity="0.1"/>
  <line x1="400" y1="200" x2="370" y2="200" stroke="#9c57ff" stroke-width="0.5" opacity="0.1"/>
  <line x1="400" y1="300" x2="370" y2="300" stroke="#00f0ff" stroke-width="0.5" opacity="0.1"/>
  <line x1="100" y1="400" x2="100" y2="370" stroke="#9c57ff" stroke-width="0.5" opacity="0.1"/>
  <line x1="200" y1="400" x2="200" y2="370" stroke="#00f0ff" stroke-width="0.5" opacity="0.1"/>
  <line x1="300" y1="400" x2="300" y2="370" stroke="#9c57ff" stroke-width="0.5" opacity="0.1"/>
  
  <!-- Small Dots -->
  <circle cx="50" cy="50" r="1" fill="#00f0ff" opacity="0.2"/>
  <circle cx="150" cy="50" r="1" fill="#9c57ff" opacity="0.2"/>
  <circle cx="250" cy="50" r="1" fill="#00f0ff" opacity="0.2"/>
  <circle cx="350" cy="50" r="1" fill="#9c57ff" opacity="0.2"/>
  <circle cx="50" cy="150" r="1" fill="#9c57ff" opacity="0.2"/>
  <circle cx="350" cy="150" r="1" fill="#00f0ff" opacity="0.2"/>
  <circle cx="50" cy="250" r="1" fill="#00f0ff" opacity="0.2"/>
  <circle cx="150" cy="250" r="1" fill="#9c57ff" opacity="0.2"/>
  <circle cx="250" cy="250" r="1" fill="#00f0ff" opacity="0.2"/>
  <circle cx="350" cy="250" r="1" fill="#9c57ff" opacity="0.2"/>
  <circle cx="50" cy="350" r="1" fill="#9c57ff" opacity="0.2"/>
  <circle cx="150" cy="350" r="1" fill="#00f0ff" opacity="0.2"/>
  <circle cx="250" cy="350" r="1" fill="#9c57ff" opacity="0.2"/>
  <circle cx="350" cy="350" r="1" fill="#00f0ff" opacity="0.2"/>
</svg>
